<svg xmlns="http://www.w3.org/2000/svg" viewBox="0 0 320 240" width="320" height="240">
  <rect width="100%" height="100%" fill="#fffef5"/>
  <g id="layer-stem" data-layer="stem">
    <line id="stem-0" x1="160.0" y1="233.5" x2="158.6" y2="134.1" stroke="#5a8f5a" stroke-width="2.5" stroke-linecap="round"/>
  </g>
  <g id="layer-branches" data-layer="branches">
    <path id="branch-0" d="M 158.5 134.1 Q 156.0 104.7 158.5 78.9" fill="none" stroke="#5c935c" stroke-width="1.5" stroke-linecap="round"/>
    <path id="branch-1" d="M 158.5 78.9 Q 148.6 61.1 125.5 53.5" fill="none" stroke="#5c935c" stroke-width="1.5" stroke-linecap="round"/>
    <path id="branch-2" d="M 158.5 78.9 Q 162.4 55.4 156.7 37.3" fill="none" stroke="#5c935c" stroke-width="1.5" stroke-linecap="round"/>
    <path id="branch-3" d="M 158.5 78.9 Q 176.1 58.1 190.9 52.7" fill="none" stroke="#5c935c" stroke-width="1.5" stroke-linecap="round"/>
    <path id="branch-4" d="M 125.5 53.5 Q 120.8 37.7 113.2 27.5" fill="none" stroke="#5c935c" stroke-width="1.5" stroke-linecap="round"/>
    <path id="branch-5" d="M 125.5 53.5 Q 112.8 36.0 97.3 47.4" fill="none" stroke="#5c935c" stroke-width="1.5" stroke-linecap="round"/>
    <path id="branch-6" d="M 156.7 37.3 Q 162.0 21.3 166.3 10.5" fill="none" stroke="#5c935c" stroke-width="1.5" stroke-linecap="round"/>
    <path id="branch-7" d="M 156.7 37.3 Q 154.2 21.6 144.0 11.8" fill="none" stroke="#5c935c" stroke-width="1.5" stroke-linecap="round"/>
    <path id="branch-8" d="M 190.9 52.7 Q 196.0 41.6 214.9 49.6" fill="none" stroke="#5c935c" stroke-width="1.5" stroke-linecap="round"/>
    <path id="branch-9" d="M 190.9 52.7 Q 197.7 39.4 199.9 30.4" fill="none" stroke="#5c935c" stroke-width="1.5" stroke-linecap="round"/>
  </g>
  <g id="layer-flowers" data-layer="flowers">
    <g><path d="M 158.55 78.94 Q 156.15 71.47 159.59 64.41 Q 161.99 71.88 158.55 78.94" fill="#FFF8E7" opacity="0.9"/>
    <path d="M 158.55 78.94 Q 164.92 74.35 172.69 75.43 Q 166.33 80.03 158.55 78.94" fill="#FFF8E7" opacity="0.9"/>
    <path d="M 158.55 78.94 Q 164.89 83.57 166.26 91.30 Q 159.92 86.67 158.55 78.94" fill="#FFF8E7" opacity="0.9"/>
    <path d="M 158.55 78.94 Q 156.11 86.40 149.18 90.08 Q 151.63 82.63 158.55 78.94" fill="#FFF8E7" opacity="0.9"/>
    <path d="M 158.55 78.94 Q 150.71 78.92 145.06 73.47 Q 152.91 73.49 158.55 78.94" fill="#FFF8E7" opacity="0.9"/>
    <circle cx="158.55" cy="78.94" r="3.3" fill="#FFF8E7"/></g>
    <g><path d="M 169.82 78.94 Q 168.36 74.04 170.69 69.49 Q 172.16 74.39 169.82 78.94" fill="#FFF8E7" opacity="0.9"/>
    <path d="M 169.82 78.94 Q 174.03 76.03 179.08 76.84 Q 174.88 79.75 169.82 78.94" fill="#FFF8E7" opacity="0.9"/>
    <path d="M 169.82 78.94 Q 173.89 82.04 174.68 87.10 Q 170.61 84.00 169.82 78.94" fill="#FFF8E7" opacity="0.9"/>
    <path d="M 169.82 78.94 Q 168.13 83.77 163.57 86.08 Q 165.26 81.25 169.82 78.94" fill="#FFF8E7" opacity="0.9"/>
    <path d="M 169.82 78.94 Q 164.71 78.82 161.10 75.19 Q 166.21 75.31 169.82 78.94" fill="#FFF8E7" opacity="0.9"/>
    <circle cx="169.82" cy="78.94" r="2.7" fill="#FFF8E7"/></g>
    <g><path d="M 156.71 37.29 Q 153.35 30.19 155.83 22.75 Q 159.19 29.84 156.71 37.29" fill="#FFF8E7" opacity="0.9"/>
    <path d="M 156.71 37.29 Q 162.41 31.90 170.26 31.97 Q 164.55 37.35 156.71 37.29" fill="#FFF8E7" opacity="0.9"/>
    <path d="M 156.71 37.29 Q 163.59 41.05 165.95 48.53 Q 159.07 44.77 156.71 37.29" fill="#FFF8E7" opacity="0.9"/>
    <path d="M 156.71 37.29 Q 155.25 45.00 148.87 49.56 Q 150.32 41.85 156.71 37.29" fill="#FFF8E7" opacity="0.9"/>
    <path d="M 156.71 37.29 Q 148.92 38.29 142.61 33.62 Q 150.40 32.62 156.71 37.29" fill="#FFF8E7" opacity="0.9"/>
    <circle cx="156.71" cy="37.29" r="4.5" fill="#FFF8E7"/></g>
    <g><path d="M 167.96 37.79 Q 166.71 32.83 169.24 28.38 Q 170.49 33.34 167.96 37.79" fill="#FFF8E7" opacity="0.9"/>
    <path d="M 167.96 37.79 Q 172.30 35.06 177.31 36.10 Q 172.98 38.82 167.96 37.79" fill="#FFF8E7" opacity="0.9"/>
    <path d="M 167.96 37.79 Q 171.89 41.06 172.46 46.15 Q 168.53 42.87 167.96 37.79" fill="#FFF8E7" opacity="0.9"/>
    <path d="M 167.96 37.79 Q 166.06 42.53 161.40 44.65 Q 163.30 39.90 167.96 37.79" fill="#FFF8E7" opacity="0.9"/>
    <path d="M 167.96 37.79 Q 162.86 37.44 159.41 33.66 Q 164.52 34.01 167.96 37.79" fill="#FFF8E7" opacity="0.9"/>
    <circle cx="167.96" cy="37.79" r="2.7" fill="#FFF8E7"/></g>
    <g><path d="M 190.97 52.71 Q 188.66 45.21 192.19 38.20 Q 194.49 45.71 190.97 52.71" fill="#FFF8E7" opacity="0.9"/>
    <path d="M 190.97 52.71 Q 197.39 48.21 205.15 49.39 Q 198.72 53.90 190.97 52.71" fill="#FFF8E7" opacity="0.9"/>
    <path d="M 190.97 52.71 Q 197.24 57.43 198.51 65.17 Q 192.23 60.46 190.97 52.71" fill="#FFF8E7" opacity="0.9"/>
    <path d="M 190.97 52.71 Q 188.42 60.14 181.45 63.74 Q 183.99 56.31 190.97 52.71" fill="#FFF8E7" opacity="0.9"/>
    <path d="M 190.97 52.71 Q 183.12 52.59 177.55 47.07 Q 185.39 47.19 190.97 52.71" fill="#FFF8E7" opacity="0.9"/>
    <circle cx="190.97" cy="52.71" r="4.1" fill="#FFF8E7"/></g>
    <g><path d="M 198.06 43.95 Q 195.39 39.59 196.48 34.59 Q 199.15 38.96 198.06 43.95" fill="#FFF8E7" opacity="0.9"/>
    <path d="M 198.06 43.95 Q 201.38 40.07 206.47 39.56 Q 203.15 43.45 198.06 43.95" fill="#FFF8E7" opacity="0.9"/>
    <path d="M 198.06 43.95 Q 202.78 45.92 204.83 50.60 Q 200.11 48.64 198.06 43.95" fill="#FFF8E7" opacity="0.9"/>
    <path d="M 198.06 43.95 Q 197.65 49.05 193.83 52.45 Q 194.23 47.35 198.06 43.95" fill="#FFF8E7" opacity="0.9"/>
    <path d="M 198.06 43.95 Q 193.08 45.14 188.66 42.56 Q 193.64 41.37 198.06 43.95" fill="#FFF8E7" opacity="0.9"/>
    <circle cx="198.06" cy="43.95" r="2.2" fill="#FFF8E7"/></g>
    <g><path d="M 125.46 53.58 Q 123.47 45.99 127.29 39.13 Q 129.28 46.73 125.46 53.58" fill="#FFF8E7" opacity="0.9"/>
    <path d="M 125.46 53.58 Q 132.07 49.35 139.77 50.86 Q 133.16 55.10 125.46 53.58" fill="#FFF8E7" opacity="0.9"/>
    <path d="M 125.46 53.58 Q 131.53 58.55 132.46 66.35 Q 126.40 61.37 125.46 53.58" fill="#FFF8E7" opacity="0.9"/>
    <path d="M 125.46 53.58 Q 122.60 60.89 115.48 64.19 Q 118.34 56.88 125.46 53.58" fill="#FFF8E7" opacity="0.9"/>
    <path d="M 125.46 53.58 Q 117.63 53.12 112.29 47.37 Q 120.12 47.83 125.46 53.58" fill="#FFF8E7" opacity="0.9"/>
    <circle cx="125.46" cy="53.58" r="4.9" fill="#FFF8E7"/></g>
    <g><path d="M 166.34 10.49 Q 163.95 3.02 167.40 -4.03 Q 169.79 3.44 166.34 10.49" fill="#FFF8E7" opacity="0.9"/>
    <path d="M 166.34 10.49 Q 172.71 5.91 180.48 7.01 Q 174.11 11.59 166.34 10.49" fill="#FFF8E7" opacity="0.9"/>
    <path d="M 166.34 10.49 Q 172.67 15.13 174.03 22.86 Q 167.70 18.22 166.34 10.49" fill="#FFF8E7" opacity="0.9"/>
    <path d="M 166.34 10.49 Q 163.89 17.94 156.95 21.62 Q 159.41 14.17 166.34 10.49" fill="#FFF8E7" opacity="0.9"/>
    <path d="M 166.34 10.49 Q 158.50 10.46 152.86 5.00 Q 160.70 5.04 166.34 10.49" fill="#FFF8E7" opacity="0.9"/>
    <circle cx="166.34" cy="10.49" r="4.7" fill="#FFF8E7"/></g>
  </g>
</svg>