<svg xmlns="http://www.w3.org/2000/svg" viewBox="0 0 320 240" width="320" height="240">
  <rect width="100%" height="100%" fill="#fefaf8"/>
  <g id="layer-stem">
    <line x1="160.0" y1="220.0" x2="158.7" y2="73.0" stroke="#5a8f5a" stroke-width="2.5" stroke-linecap="round"/>
  </g>
  <g id="layer-branches">
    <path d="M 158.7 73.0 Q 156.5 37.6 158.7 5.5" fill="none" stroke="#5c935c" stroke-width="1.5" stroke-linecap="round"/>
    <path d="M 158.7 5.5 Q 147.6 -15.6 123.6 -26.6" fill="none" stroke="#5c935c" stroke-width="1.5" stroke-linecap="round"/>
    <path d="M 123.6 -26.6 Q 118.1 -44.4 109.4 -56.3" fill="none" stroke="#5c935c" stroke-width="1.5" stroke-linecap="round"/>
    <path d="M 123.6 -26.6 Q 106.9 -43.0 93.2 -39.2" fill="none" stroke="#5c935c" stroke-width="1.5" stroke-linecap="round"/>
    <path d="M 158.7 5.5 Q 161.9 -20.7 156.6 -42.1" fill="none" stroke="#5c935c" stroke-width="1.5" stroke-linecap="round"/>
    <path d="M 156.6 -42.1 Q 161.5 -59.9 165.7 -73.3" fill="none" stroke="#5c935c" stroke-width="1.5" stroke-linecap="round"/>
    <path d="M 156.6 -42.1 Q 153.9 -59.7 144.1 -72.1" fill="none" stroke="#5c935c" stroke-width="1.5" stroke-linecap="round"/>
    <path d="M 158.7 5.5 Q 176.5 -18.3 193.0 -27.6" fill="none" stroke="#5c935c" stroke-width="1.5" stroke-linecap="round"/>
    <path d="M 193.0 -27.6 Q 199.6 -40.5 219.3 -35.4" fill="none" stroke="#5c935c" stroke-width="1.5" stroke-linecap="round"/>
    <path d="M 193.0 -27.6 Q 199.7 -42.4 202.7 -53.3" fill="none" stroke="#5c935c" stroke-width="1.5" stroke-linecap="round"/>
  </g>
  <g id="layer-flowers">
    <path d="M 158.74 5.50 Q 154.46 -0.30 156.58 -7.18 Q 160.86 -1.39 158.74 5.50" fill="#F8B4C4" opacity="0.9"/>
    <path d="M 158.74 5.50 Q 162.93 -0.36 170.14 -0.48 Q 165.95 5.38 158.74 5.50" fill="#F8B4C4" opacity="0.9"/>
    <path d="M 158.74 5.50 Q 165.61 7.67 167.95 14.49 Q 161.08 12.32 158.74 5.50" fill="#F8B4C4" opacity="0.9"/>
    <path d="M 158.74 5.50 Q 158.80 12.70 153.04 17.03 Q 152.98 9.83 158.74 5.50" fill="#F8B4C4" opacity="0.9"/>
    <path d="M 158.74 5.50 Q 151.91 7.78 146.01 3.64 Q 152.85 1.36 158.74 5.50" fill="#F8B4C4" opacity="0.9"/>
    <circle cx="158.74" cy="5.50" r="4.1" fill="#F8B4C4"/>
    <path d="M 167.56 9.30 Q 165.31 4.91 167.50 0.49 Q 169.75 4.88 167.56 9.30" fill="#F8B4C4" opacity="0.9"/>
    <path d="M 167.56 9.30 Q 171.04 5.81 175.92 6.53 Q 172.44 10.02 167.56 9.30" fill="#F8B4C4" opacity="0.9"/>
    <path d="M 167.56 9.30 Q 171.96 11.54 172.78 16.40 Q 168.38 14.17 167.56 9.30" fill="#F8B4C4" opacity="0.9"/>
    <path d="M 167.56 9.30 Q 166.79 14.18 162.42 16.46 Q 163.18 11.59 167.56 9.30" fill="#F8B4C4" opacity="0.9"/>
    <path d="M 167.56 9.30 Q 162.68 10.08 159.16 6.63 Q 164.03 5.85 167.56 9.30" fill="#F8B4C4" opacity="0.9"/>
    <circle cx="167.56" cy="9.30" r="2.4" fill="#F8B4C4"/>
    <path d="M 167.56 1.70 Q 165.69 -2.87 168.26 -7.09 Q 170.12 -2.52 167.56 1.70" fill="#F8B4C4" opacity="0.9"/>
    <path d="M 167.56 1.70 Q 171.33 -1.49 176.13 -0.35 Q 172.36 2.84 167.56 1.70" fill="#F8B4C4" opacity="0.9"/>
    <path d="M 167.56 1.70 Q 171.75 4.30 172.15 9.22 Q 167.96 6.62 167.56 1.70" fill="#F8B4C4" opacity="0.9"/>
    <path d="M 167.56 1.70 Q 166.38 6.49 161.82 8.39 Q 163.00 3.60 167.56 1.70" fill="#F8B4C4" opacity="0.9"/>
    <path d="M 167.56 1.70 Q 162.64 2.06 159.42 -1.69 Q 164.34 -2.05 167.56 1.70" fill="#F8B4C4" opacity="0.9"/>
    <circle cx="167.56" cy="1.70" r="3.0" fill="#F8B4C4"/>
    <path d="M 123.62 -26.64 Q 120.47 -33.12 123.80 -39.51 Q 126.95 -33.03 123.62 -26.64" fill="#F8B4C4" opacity="0.9"/>
    <path d="M 123.62 -26.64 Q 128.81 -31.64 135.91 -30.45 Q 130.73 -25.45 123.62 -26.64" fill="#F8B4C4" opacity="0.9"/>
    <path d="M 123.62 -26.64 Q 129.98 -23.26 131.04 -16.13 Q 124.68 -19.52 123.62 -26.64" fill="#F8B4C4" opacity="0.9"/>
    <path d="M 123.62 -26.64 Q 122.36 -19.55 115.91 -16.34 Q 117.17 -23.43 123.62 -26.64" fill="#F8B4C4" opacity="0.9"/>
    <path d="M 123.62 -26.64 Q 116.48 -25.64 111.44 -30.79 Q 118.57 -31.79 123.62 -26.64" fill="#F8B4C4" opacity="0.9"/>
    <circle cx="123.62" cy="-26.64" r="4.1" fill="#F8B4C4"/>
    <path d="M 126.77 -17.57 Q 124.51 -21.96 126.69 -26.39 Q 128.95 -22.00 126.77 -17.57" fill="#F8B4C4" opacity="0.9"/>
    <path d="M 126.77 -17.57 Q 130.24 -21.08 135.12 -20.37 Q 131.65 -16.86 126.77 -17.57" fill="#F8B4C4" opacity="0.9"/>
    <path d="M 126.77 -17.57 Q 131.17 -15.35 132.01 -10.49 Q 127.60 -12.71 126.77 -17.57" fill="#F8B4C4" opacity="0.9"/>
    <path d="M 126.77 -17.57 Q 126.01 -12.69 121.65 -10.40 Q 122.40 -15.28 126.77 -17.57" fill="#F8B4C4" opacity="0.9"/>
    <path d="M 126.77 -17.57 Q 121.89 -16.78 118.36 -20.22 Q 123.23 -21.02 126.77 -17.57" fill="#F8B4C4" opacity="0.9"/>
    <circle cx="126.77" cy="-17.57" r="2.1" fill="#F8B4C4"/>
    <path d="M 132.38 -22.71 Q 129.48 -26.70 130.98 -31.41 Q 133.87 -27.41 132.38 -22.71" fill="#F8B4C4" opacity="0.9"/>
    <path d="M 132.38 -22.71 Q 135.28 -26.69 140.22 -26.73 Q 137.31 -22.74 132.38 -22.71" fill="#F8B4C4" opacity="0.9"/>
    <path d="M 132.38 -22.71 Q 137.07 -21.17 138.62 -16.49 Q 133.93 -18.02 132.38 -22.71" fill="#F8B4C4" opacity="0.9"/>
    <path d="M 132.38 -22.71 Q 132.37 -17.77 128.39 -14.84 Q 128.40 -19.78 132.38 -22.71" fill="#F8B4C4" opacity="0.9"/>
    <path d="M 132.38 -22.71 Q 127.68 -21.19 123.67 -24.06 Q 128.36 -25.58 132.38 -22.71" fill="#F8B4C4" opacity="0.9"/>
    <circle cx="132.38" cy="-22.71" r="2.9" fill="#F8B4C4"/>
    <path d="M 156.63 -42.06 Q 154.54 -48.96 158.84 -54.74 Q 160.93 -47.84 156.63 -42.06" fill="#F8B4C4" opacity="0.9"/>
    <path d="M 156.63 -42.06 Q 162.54 -46.18 169.37 -43.88 Q 163.46 -39.76 156.63 -42.06" fill="#F8B4C4" opacity="0.9"/>
    <path d="M 156.63 -42.06 Q 162.38 -37.71 162.29 -30.51 Q 156.55 -34.86 156.63 -42.06" fill="#F8B4C4" opacity="0.9"/>
    <path d="M 156.63 -42.06 Q 154.27 -35.26 147.39 -33.11 Q 149.75 -39.92 156.63 -42.06" fill="#F8B4C4" opacity="0.9"/>
    <path d="M 156.63 -42.06 Q 149.43 -42.21 145.26 -48.08 Q 152.46 -47.94 156.63 -42.06" fill="#F8B4C4" opacity="0.9"/>
    <circle cx="156.63" cy="-42.06" r="4.1" fill="#F8B4C4"/>
    <path d="M 165.27 -37.87 Q 163.55 -42.50 166.25 -46.63 Q 167.97 -42.01 165.27 -37.87" fill="#F8B4C4" opacity="0.9"/>
    <path d="M 165.27 -37.87 Q 169.14 -40.94 173.90 -39.65 Q 170.03 -36.58 165.27 -37.87" fill="#F8B4C4" opacity="0.9"/>
    <path d="M 165.27 -37.87 Q 169.38 -35.14 169.62 -30.21 Q 165.52 -32.94 165.27 -37.87" fill="#F8B4C4" opacity="0.9"/>
    <path d="M 165.27 -37.87 Q 163.94 -33.12 159.33 -31.36 Q 160.66 -36.12 165.27 -37.87" fill="#F8B4C4" opacity="0.9"/>
    <path d="M 165.27 -37.87 Q 160.34 -37.67 157.24 -41.51 Q 162.17 -41.72 165.27 -37.87" fill="#F8B4C4" opacity="0.9"/>
    <circle cx="165.27" cy="-37.87" r="2.2" fill="#F8B4C4"/>
    <path d="M 165.61 -45.47 Q 163.76 -50.05 166.34 -54.25 Q 168.19 -49.68 165.61 -45.47" fill="#F8B4C4" opacity="0.9"/>
    <path d="M 165.61 -45.47 Q 169.39 -48.64 174.19 -47.49 Q 170.41 -44.32 165.61 -45.47" fill="#F8B4C4" opacity="0.9"/>
    <path d="M 165.61 -45.47 Q 169.79 -42.85 170.18 -37.93 Q 165.99 -40.55 165.61 -45.47" fill="#F8B4C4" opacity="0.9"/>
    <path d="M 165.61 -45.47 Q 164.41 -40.68 159.85 -38.80 Q 161.05 -43.58 165.61 -45.47" fill="#F8B4C4" opacity="0.9"/>
    <path d="M 165.61 -45.47 Q 160.68 -45.13 157.48 -48.88 Q 162.40 -49.23 165.61 -45.47" fill="#F8B4C4" opacity="0.9"/>
    <circle cx="165.61" cy="-45.47" r="2.4" fill="#F8B4C4"/>
    <path d="M 193.00 -27.56 Q 189.55 -33.88 192.59 -40.42 Q 196.04 -34.09 193.00 -27.56" fill="#F8B4C4" opacity="0.9"/>
    <path d="M 193.00 -27.56 Q 197.95 -32.79 205.11 -31.93 Q 200.16 -26.69 193.00 -27.56" fill="#F8B4C4" opacity="0.9"/>
    <path d="M 193.00 -27.56 Q 199.51 -24.47 200.90 -17.40 Q 194.39 -20.49 193.00 -27.56" fill="#F8B4C4" opacity="0.9"/>
    <path d="M 193.00 -27.56 Q 192.08 -20.41 185.78 -16.91 Q 186.71 -24.05 193.00 -27.56" fill="#F8B4C4" opacity="0.9"/>
    <path d="M 193.00 -27.56 Q 185.92 -26.23 180.64 -31.14 Q 187.73 -32.46 193.00 -27.56" fill="#F8B4C4" opacity="0.9"/>
    <circle cx="193.00" cy="-27.56" r="3.0" fill="#F8B4C4"/>
    <path d="M 201.86 -31.26 Q 199.41 -35.54 201.39 -40.06 Q 203.84 -35.78 201.86 -31.26" fill="#F8B4C4" opacity="0.9"/>
    <path d="M 201.86 -31.26 Q 205.18 -34.92 210.09 -34.43 Q 206.77 -30.77 201.86 -31.26" fill="#F8B4C4" opacity="0.9"/>
    <path d="M 201.86 -31.26 Q 206.36 -29.24 207.42 -24.42 Q 202.91 -26.44 201.86 -31.26" fill="#F8B4C4" opacity="0.9"/>
    <path d="M 201.86 -31.26 Q 201.33 -26.35 197.07 -23.86 Q 197.60 -28.77 201.86 -31.26" fill="#F8B4C4" opacity="0.9"/>
    <path d="M 201.86 -31.26 Q 197.03 -30.25 193.35 -33.53 Q 198.18 -34.54 201.86 -31.26" fill="#F8B4C4" opacity="0.9"/>
    <circle cx="201.86" cy="-31.26" r="2.4" fill="#F8B4C4"/>
    <path d="M 196.39 -36.54 Q 193.96 -40.84 195.97 -45.35 Q 198.40 -41.05 196.39 -36.54" fill="#F8B4C4" opacity="0.9"/>
    <path d="M 196.39 -36.54 Q 199.72 -40.18 204.63 -39.66 Q 201.30 -36.02 196.39 -36.54" fill="#F8B4C4" opacity="0.9"/>
    <path d="M 196.39 -36.54 Q 200.88 -34.49 201.90 -29.67 Q 197.41 -31.71 196.39 -36.54" fill="#F8B4C4" opacity="0.9"/>
    <path d="M 196.39 -36.54 Q 195.83 -31.64 191.55 -29.17 Q 192.11 -34.08 196.39 -36.54" fill="#F8B4C4" opacity="0.9"/>
    <path d="M 196.39 -36.54 Q 191.55 -35.56 187.89 -38.86 Q 192.72 -39.85 196.39 -36.54" fill="#F8B4C4" opacity="0.9"/>
    <circle cx="196.39" cy="-36.54" r="2.7" fill="#F8B4C4"/>
    <path d="M 202.67 -53.26 Q 198.63 -59.22 201.02 -66.02 Q 205.06 -60.06 202.67 -53.26" fill="#F8B4C4" opacity="0.9"/>
    <path d="M 202.67 -53.26 Q 207.09 -58.95 214.30 -58.78 Q 209.88 -53.09 202.67 -53.26" fill="#F8B4C4" opacity="0.9"/>
    <path d="M 202.67 -53.26 Q 209.45 -50.82 211.52 -43.91 Q 204.74 -46.36 202.67 -53.26" fill="#F8B4C4" opacity="0.9"/>
    <path d="M 202.67 -53.26 Q 202.44 -46.06 196.52 -41.96 Q 196.75 -49.16 202.67 -53.26" fill="#F8B4C4" opacity="0.9"/>
    <path d="M 202.67 -53.26 Q 195.75 -51.25 190.03 -55.62 Q 196.95 -57.63 202.67 -53.26" fill="#F8B4C4" opacity="0.9"/>
    <circle cx="202.67" cy="-53.26" r="4.0" fill="#F8B4C4"/>
    <path d="M 212.26 -52.81 Q 209.58 -56.95 211.31 -61.57 Q 214.00 -57.43 212.26 -52.81" fill="#F8B4C4" opacity="0.9"/>
    <path d="M 212.26 -52.81 Q 215.37 -56.64 220.30 -56.42 Q 217.19 -52.59 212.26 -52.81" fill="#F8B4C4" opacity="0.9"/>
    <path d="M 212.26 -52.81 Q 216.87 -51.03 218.19 -46.28 Q 213.58 -48.05 212.26 -52.81" fill="#F8B4C4" opacity="0.9"/>
    <path d="M 212.26 -52.81 Q 212.00 -47.88 207.88 -45.16 Q 208.15 -50.08 212.26 -52.81" fill="#F8B4C4" opacity="0.9"/>
    <path d="M 212.26 -52.81 Q 207.50 -51.53 203.64 -54.61 Q 208.40 -55.88 212.26 -52.81" fill="#F8B4C4" opacity="0.9"/>
    <circle cx="212.26" cy="-52.81" r="2.2" fill="#F8B4C4"/>
    <path d="M 209.59 -59.92 Q 206.84 -64.02 208.50 -68.67 Q 211.25 -64.57 209.59 -59.92" fill="#F8B4C4" opacity="0.9"/>
    <path d="M 209.59 -59.92 Q 212.64 -63.80 217.57 -63.66 Q 214.52 -59.78 209.59 -59.92" fill="#F8B4C4" opacity="0.9"/>
    <path d="M 209.59 -59.92 Q 214.22 -58.22 215.61 -53.48 Q 210.97 -55.19 209.59 -59.92" fill="#F8B4C4" opacity="0.9"/>
    <path d="M 209.59 -59.92 Q 209.40 -54.99 205.32 -52.21 Q 205.51 -57.14 209.59 -59.92" fill="#F8B4C4" opacity="0.9"/>
    <path d="M 209.59 -59.92 Q 204.84 -58.58 200.93 -61.59 Q 205.68 -62.94 209.59 -59.92" fill="#F8B4C4" opacity="0.9"/>
    <circle cx="209.59" cy="-59.92" r="2.2" fill="#F8B4C4"/>
    <path d="M 93.22 -39.17 Q 89.36 -45.26 91.96 -51.98 Q 95.82 -45.89 93.22 -39.17" fill="#F8B4C4" opacity="0.9"/>
    <path d="M 93.22 -39.17 Q 97.82 -44.72 105.01 -44.32 Q 100.41 -38.78 93.22 -39.17" fill="#F8B4C4" opacity="0.9"/>
    <path d="M 93.22 -39.17 Q 99.92 -36.51 101.76 -29.55 Q 95.07 -32.21 93.22 -39.17" fill="#F8B4C4" opacity="0.9"/>
    <path d="M 93.22 -39.17 Q 92.76 -31.98 86.71 -28.07 Q 87.17 -35.26 93.22 -39.17" fill="#F8B4C4" opacity="0.9"/>
    <path d="M 93.22 -39.17 Q 86.24 -37.38 80.65 -41.93 Q 87.63 -43.72 93.22 -39.17" fill="#F8B4C4" opacity="0.9"/>
    <circle cx="93.22" cy="-39.17" r="4.0" fill="#F8B4C4"/>
    <path d="M 93.06 -29.57 Q 91.61 -34.29 94.53 -38.26 Q 95.99 -33.55 93.06 -29.57" fill="#F8B4C4" opacity="0.9"/>
    <path d="M 93.06 -29.57 Q 97.10 -32.41 101.78 -30.86 Q 97.75 -28.02 93.06 -29.57" fill="#F8B4C4" opacity="0.9"/>
    <path d="M 93.06 -29.57 Q 97.01 -26.61 96.98 -21.68 Q 93.03 -24.64 93.06 -29.57" fill="#F8B4C4" opacity="0.9"/>
    <path d="M 93.06 -29.57 Q 91.47 -24.90 86.76 -23.41 Q 88.36 -28.08 93.06 -29.57" fill="#F8B4C4" opacity="0.9"/>
    <path d="M 93.06 -29.57 Q 88.13 -29.65 85.25 -33.66 Q 90.19 -33.58 93.06 -29.57" fill="#F8B4C4" opacity="0.9"/>
    <circle cx="93.06" cy="-29.57" r="2.1" fill="#F8B4C4"/>
    <path d="M 100.09 -32.47 Q 97.57 -36.71 99.48 -41.26 Q 102.01 -37.02 100.09 -32.47" fill="#F8B4C4" opacity="0.9"/>
    <path d="M 100.09 -32.47 Q 103.35 -36.18 108.27 -35.77 Q 105.01 -32.06 100.09 -32.47" fill="#F8B4C4" opacity="0.9"/>
    <path d="M 100.09 -32.47 Q 104.63 -30.52 105.76 -25.72 Q 101.22 -27.67 100.09 -32.47" fill="#F8B4C4" opacity="0.9"/>
    <path d="M 100.09 -32.47 Q 99.64 -27.56 95.42 -25.00 Q 95.87 -29.91 100.09 -32.47" fill="#F8B4C4" opacity="0.9"/>
    <path d="M 100.09 -32.47 Q 95.28 -31.38 91.54 -34.61 Q 96.36 -35.69 100.09 -32.47" fill="#F8B4C4" opacity="0.9"/>
    <circle cx="100.09" cy="-32.47" r="3.0" fill="#F8B4C4"/>
  </g>
</svg>