<svg xmlns="http://www.w3.org/2000/svg" viewBox="0 0 320 240" width="320" height="240">
  <rect width="100%" height="100%" fill="#fefaf8"/>
  <g id="layer-stem">
    <line x1="160.0" y1="220.0" x2="158.7" y2="91.0" stroke="#5a8f5a" stroke-width="2.5" stroke-linecap="round"/>
  </g>
  <g id="layer-branches">
    <path d="M 158.7 91.0 Q 156.5 63.1 158.7 38.5" fill="none" stroke="#5c935c" stroke-width="1.5" stroke-linecap="round"/>
    <path d="M 158.7 38.5 Q 150.7 22.7 131.4 13.5" fill="none" stroke="#5c935c" stroke-width="1.5" stroke-linecap="round"/>
    <path d="M 158.7 38.5 Q 158.2 18.7 157.1 1.5" fill="none" stroke="#5c935c" stroke-width="1.5" stroke-linecap="round"/>
    <path d="M 158.7 38.5 Q 164.8 20.0 185.4 12.8" fill="none" stroke="#5c935c" stroke-width="1.5" stroke-linecap="round"/>
  </g>
  <g id="layer-flowers">
    <path d="M 158.74 38.50 Q 155.61 31.90 157.31 24.79 Q 160.44 31.39 158.74 38.50" fill="#F8B4C4" opacity="0.9"/>
    <path d="M 158.74 38.50 Q 164.05 33.48 171.34 32.90 Q 166.03 37.92 158.74 38.50" fill="#F8B4C4" opacity="0.9"/>
    <path d="M 158.74 38.50 Q 165.16 42.00 167.96 48.75 Q 161.55 45.25 158.74 38.50" fill="#F8B4C4" opacity="0.9"/>
    <path d="M 158.74 38.50 Q 157.40 45.68 151.84 50.44 Q 153.19 43.25 158.74 38.50" fill="#F8B4C4" opacity="0.9"/>
    <path d="M 158.74 38.50 Q 151.49 39.44 145.26 35.63 Q 152.51 34.69 158.74 38.50" fill="#F8B4C4" opacity="0.9"/>
    <circle cx="158.74" cy="38.50" r="3.9" fill="#F8B4C4"/>
    <path d="M 165.94 38.50 Q 164.14 34.54 165.21 30.33 Q 167.01 34.29 165.94 38.50" fill="#F8B4C4" opacity="0.9"/>
    <path d="M 165.94 38.50 Q 169.15 35.56 173.49 35.27 Q 170.28 38.22 165.94 38.50" fill="#F8B4C4" opacity="0.9"/>
    <path d="M 165.94 38.50 Q 169.73 40.64 171.34 44.68 Q 167.55 42.54 165.94 38.50" fill="#F8B4C4" opacity="0.9"/>
    <path d="M 165.94 38.50 Q 165.08 42.76 161.74 45.54 Q 162.60 41.28 165.94 38.50" fill="#F8B4C4" opacity="0.9"/>
    <path d="M 165.94 38.50 Q 161.62 39.00 157.94 36.68 Q 162.26 36.18 165.94 38.50" fill="#F8B4C4" opacity="0.9"/>
    <circle cx="165.94" cy="38.50" r="2.6" fill="#F8B4C4"/>
    <path d="M 157.10 1.51 Q 155.09 -5.52 157.92 -12.26 Q 159.94 -5.23 157.10 1.51" fill="#F8B4C4" opacity="0.9"/>
    <path d="M 157.10 1.51 Q 163.16 -2.58 170.44 -1.96 Q 164.38 2.12 157.10 1.51" fill="#F8B4C4" opacity="0.9"/>
    <path d="M 157.10 1.51 Q 162.86 6.01 164.52 13.12 Q 158.77 8.62 157.10 1.51" fill="#F8B4C4" opacity="0.9"/>
    <path d="M 157.10 1.51 Q 154.60 8.37 148.35 12.16 Q 150.85 5.29 157.10 1.51" fill="#F8B4C4" opacity="0.9"/>
    <path d="M 157.10 1.51 Q 149.80 1.25 144.27 -3.53 Q 151.57 -3.27 157.10 1.51" fill="#F8B4C4" opacity="0.9"/>
    <circle cx="157.10" cy="1.51" r="4.4" fill="#F8B4C4"/>
    <path d="M 164.29 1.83 Q 162.22 -2.00 163.00 -6.27 Q 165.07 -2.45 164.29 1.83" fill="#F8B4C4" opacity="0.9"/>
    <path d="M 164.29 1.83 Q 167.29 -1.33 171.60 -1.91 Q 168.60 1.24 164.29 1.83" fill="#F8B4C4" opacity="0.9"/>
    <path d="M 164.29 1.83 Q 168.22 3.70 170.10 7.62 Q 166.18 5.74 164.29 1.83" fill="#F8B4C4" opacity="0.9"/>
    <path d="M 164.29 1.83 Q 163.73 6.14 160.58 9.14 Q 161.15 4.83 164.29 1.83" fill="#F8B4C4" opacity="0.9"/>
    <path d="M 164.29 1.83 Q 160.02 2.62 156.19 0.55 Q 160.47 -0.24 164.29 1.83" fill="#F8B4C4" opacity="0.9"/>
    <circle cx="164.29" cy="1.83" r="2.4" fill="#F8B4C4"/>
    <path d="M 131.42 13.50 Q 128.47 6.82 130.35 -0.24 Q 133.31 6.44 131.42 13.50" fill="#F8B4C4" opacity="0.9"/>
    <path d="M 131.42 13.50 Q 136.87 8.62 144.16 8.23 Q 138.72 13.11 131.42 13.50" fill="#F8B4C4" opacity="0.9"/>
    <path d="M 131.42 13.50 Q 137.75 17.17 140.38 23.99 Q 134.05 20.32 131.42 13.50" fill="#F8B4C4" opacity="0.9"/>
    <path d="M 131.42 13.50 Q 129.89 20.65 124.22 25.25 Q 125.75 18.11 131.42 13.50" fill="#F8B4C4" opacity="0.9"/>
    <path d="M 131.42 13.50 Q 124.15 14.25 118.02 10.28 Q 125.29 9.53 131.42 13.50" fill="#F8B4C4" opacity="0.9"/>
    <circle cx="131.42" cy="13.50" r="3.0" fill="#F8B4C4"/>
    <path d="M 136.29 18.81 Q 134.29 14.95 135.15 10.69 Q 137.15 14.55 136.29 18.81" fill="#F8B4C4" opacity="0.9"/>
    <path d="M 136.29 18.81 Q 139.34 15.72 143.66 15.22 Q 140.61 18.32 136.29 18.81" fill="#F8B4C4" opacity="0.9"/>
    <path d="M 136.29 18.81 Q 140.17 20.76 141.98 24.72 Q 138.09 22.77 136.29 18.81" fill="#F8B4C4" opacity="0.9"/>
    <path d="M 136.29 18.81 Q 135.63 23.11 132.43 26.05 Q 133.08 21.75 136.29 18.81" fill="#F8B4C4" opacity="0.9"/>
    <path d="M 136.29 18.81 Q 131.99 19.52 128.21 17.38 Q 132.50 16.67 136.29 18.81" fill="#F8B4C4" opacity="0.9"/>
    <circle cx="136.29" cy="18.81" r="2.2" fill="#F8B4C4"/>
  </g>
</svg>